<?xml version="1.0" standalone="no"?>
<!DOCTYPE svg PUBLIC "-//W3C//DTD SVG 20010904//EN"
 "http://www.w3.org/TR/2001/REC-SVG-20010904/DTD/svg10.dtd">
<svg version="1.0" xmlns="http://www.w3.org/2000/svg"
 width="256.000000pt" height="256.000000pt" viewBox="0 0 256.000000 256.000000"
 preserveAspectRatio="xMidYMid meet">
<metadata>
Created by potrace 1.11, written by Peter Selinger 2001-2013
</metadata>
<g transform="translate(0.000000,256.000000) scale(0.100000,-0.100000)"
fill="#000000" stroke="none">
<path d="M1915 2301 c-3 -5 -2 -12 3 -15 5 -3 9 1 9 9 0 17 -3 19 -12 6z"/>
<path d="M1777 2209 c7 -7 15 -10 18 -7 3 3 -2 9 -12 12 -14 6 -15 5 -6 -5z"/>
<path d="M1830 2200 c0 -5 5 -10 11 -10 5 0 7 5 4 10 -3 6 -8 10 -11 10 -2 0
-4 -4 -4 -10z"/>
<path d="M1748 2187 c-11 -9 -14 -18 -7 -28 16 -26 9 -35 -10 -12 -18 21 -19
21 -24 4 -2 -11 0 -24 6 -30 7 -7 7 -11 1 -11 -5 0 -15 5 -21 11 -16 16 -34 2
-26 -19 6 -14 4 -15 -9 -4 -14 11 -19 9 -32 -10 -9 -12 -16 -19 -16 -14 0 5
-11 -3 -25 -18 -14 -15 -25 -24 -25 -20 0 3 -7 1 -15 -6 -9 -7 -13 -20 -10
-28 4 -10 0 -12 -11 -8 -10 4 -27 -5 -47 -26 -17 -18 -27 -26 -22 -18 4 8 -4
4 -18 -9 -15 -13 -24 -28 -20 -34 3 -6 1 -7 -6 -3 -6 4 -18 1 -25 -6 -8 -7
-82 -67 -165 -133 l-150 -120 21 -35 c71 -118 98 -206 98 -325 0 -123 -35
-243 -99 -340 l-20 -31 100 -79 c55 -44 110 -88 122 -99 12 -10 38 -30 57 -45
19 -14 43 -34 53 -45 9 -10 17 -15 17 -10 0 5 4 4 8 -3 18 -28 149 -123 170
-123 14 0 21 4 16 11 -3 6 -14 9 -24 6 -13 -3 -17 0 -13 9 3 9 0 13 -8 11 -8
-2 -11 -2 -6 0 4 3 5 8 3 12 -3 4 0 8 7 9 55 4 72 11 75 28 3 16 1 17 -7 4 -9
-13 -11 -12 -11 4 0 12 5 16 14 13 10 -4 14 0 13 14 -2 23 -6 23 -34 0 -23
-19 -32 -38 -13 -26 6 3 10 2 10 -3 0 -6 -6 -12 -13 -15 -23 -9 -16 31 8 47
24 16 25 53 1 39 -6 -4 -4 2 4 13 8 10 16 21 17 23 2 3 9 -4 17 -14 15 -21 50
-30 43 -12 -3 7 -9 11 -15 10 -15 -3 -23 25 -10 33 7 4 8 3 4 -4 -4 -7 -5 -12
-2 -12 2 0 13 -3 23 -6 15 -6 16 -4 6 7 -16 16 -17 29 -2 29 5 0 8 -4 4 -9 -3
-5 -1 -12 4 -15 5 -3 11 1 15 9 9 24 -27 37 -52 19 -12 -8 -22 -11 -22 -5 0 5
9 13 20 16 11 3 20 11 20 16 0 6 -4 7 -10 4 -5 -3 -10 -1 -10 4 0 17 14 13 33
-9 9 -11 22 -20 29 -20 8 0 4 7 -7 16 -20 16 -19 16 4 9 l24 -7 -22 31 c-12
17 -27 31 -33 31 -24 0 4 14 32 16 23 1 27 -1 23 -15 -5 -13 -3 -13 7 -4 18
16 5 44 -17 37 -14 -5 -15 -4 -4 4 11 8 21 6 35 -4 31 -21 42 -17 15 6 -15 12
-20 23 -14 27 10 8 16 33 16 66 0 21 15 23 17 2 1 -8 3 -21 4 -29 1 -7 11 -13
23 -12 13 0 21 6 18 13 -3 7 -10 11 -16 10 -7 -1 -12 5 -11 14 1 18 -72 63
-81 50 -3 -5 4 -12 15 -16 11 -3 20 -11 20 -16 0 -5 -11 -2 -24 7 -15 9 -22
21 -19 30 7 18 9 18 49 -7 19 -12 34 -16 34 -10 0 7 -7 14 -15 17 -8 4 -15 10
-15 16 0 5 5 6 10 3 6 -3 10 1 10 10 0 9 -4 14 -8 11 -4 -2 -14 4 -21 16 -7
11 -8 17 -2 13 10 -5 15 7 12 27 0 4 5 5 12 2 7 -2 13 4 14 16 2 19 0 19 -25
4 l-27 -16 25 22 c21 18 22 21 5 15 -16 -5 -17 -4 -8 6 10 10 16 9 31 -4 32
-29 37 -19 7 13 -24 25 -30 27 -39 15 -8 -11 -15 -12 -26 -4 -13 9 -12 10 3 5
21 -7 22 7 2 24 -8 7 -15 18 -15 24 0 6 5 4 10 -4 9 -14 11 -13 14 10 0 5 11
17 23 25 20 14 22 14 17 0 -3 -8 -13 -15 -22 -15 -8 0 -12 -3 -9 -7 4 -3 2
-12 -4 -19 -7 -8 -7 -14 1 -19 5 -3 10 0 10 7 0 8 5 6 11 -4 5 -10 15 -18 21
-18 7 0 6 5 -2 15 -9 10 -9 15 -1 15 11 0 15 -13 12 -37 -1 -11 36 -43 51 -43
4 0 5 7 2 15 -4 8 -10 13 -14 10 -15 -9 -21 14 -9 36 10 19 9 21 -5 16 -10 -4
-15 -3 -11 3 6 10 -7 14 -33 11 -8 -1 -7 5 4 18 10 11 21 18 26 15 4 -3 8 -1
8 5 0 5 -9 13 -21 16 -11 4 -18 9 -16 12 3 2 14 0 26 -6 12 -7 22 -7 26 -2 6
11 -31 26 -60 23 l-20 -2 20 9 c19 9 17 12 -15 15 -8 0 -14 7 -12 15 2 8 -3
11 -11 8 -8 -3 -20 -1 -28 4 -9 6 -3 8 19 5 21 -2 35 2 41 11 7 13 9 13 15 -2
3 -9 4 -21 1 -25 -3 -5 4 -8 15 -7 24 2 25 -2 -2 42 -21 36 -21 37 -33 15 -10
-19 -13 -20 -18 -6 -4 10 -3 15 3 11 6 -3 11 -1 11 4 1 6 2 17 3 24 1 6 -5 17
-14 24 -8 7 -10 13 -4 13 15 0 36 -25 27 -33 -3 -4 -1 -7 5 -7 20 0 22 17 2
35 -14 13 -17 22 -10 35 5 10 6 20 3 24 -3 3 -1 6 5 6 6 0 9 -12 7 -30 -2 -16
1 -32 6 -35 5 -4 9 -1 9 5 0 7 6 10 14 7 8 -3 17 1 20 9 4 12 1 14 -14 9 -16
-5 -19 -2 -17 14 2 11 6 24 10 27 12 12 8 26 -5 18 -20 -13 -52 -12 -67 0 -11
9 -13 7 -7 -11 8 -25 -4 -36 -24 -21 -13 8 -12 9 2 5 15 -5 18 9 8 53 0 3 -7
-6 -15 -20 -16 -29 -20 -19 -4 11 5 11 15 16 21 13 8 -5 9 -1 5 10 -4 10 -3
15 3 11 6 -3 10 -2 10 3 0 16 -13 22 -27 11 -8 -7 -13 -8 -13 -1 0 14 28 23
35 12 10 -17 21 -11 21 10 0 13 -5 19 -13 16 -7 -3 -20 -3 -28 0 -11 5 -12 11
-4 26 11 20 -5 53 -20 43 -11 -6 -10 28 2 43 5 7 7 16 3 19 -4 4 -10 2 -14 -4
-5 -8 -11 -8 -22 0 -20 16 -23 33 -10 57 6 11 6 21 1 24 -5 4 -11 2 -13 -3 -1
-6 -14 -1 -28 10 -14 12 -19 18 -12 14 6 -3 12 -2 12 4 0 5 -6 12 -12 14 -10
4 -10 6 0 6 8 1 16 -8 19 -18 3 -12 13 -19 24 -18 11 1 18 5 16 10 -1 5 -6 7
-10 5 -3 -2 -14 7 -22 20 -9 12 -21 20 -26 16 -13 -8 -65 -16 -58 -9 4 3 17 8
30 10 13 3 30 13 38 22 12 16 13 16 8 1 -4 -12 4 -24 24 -39 17 -12 28 -27 25
-34 -6 -16 21 -29 29 -15 4 6 2 10 -3 10 -9 0 -25 37 -23 53 1 4 -7 7 -16 5
-19 -3 -25 28 -9 50 5 8 4 12 -5 12 -10 0 -10 3 -1 12 8 8 15 8 28 -3 10 -8
15 -9 11 -3 -3 6 0 11 8 11 16 0 20 -12 8 -20 -5 -2 -3 -3 2 -1 6 1 19 -4 30
-12 14 -10 15 -14 4 -14 -11 0 -11 -2 -1 -9 11 -6 10 -10 -3 -15 -11 -4 -15
-12 -11 -24 6 -16 5 -16 -8 1 -15 20 -27 22 -23 5 3 -20 20 -28 42 -22 17 4
18 3 5 -6 -13 -10 -12 -11 3 -6 9 3 18 1 18 -4 1 -6 3 -14 4 -20 1 -5 3 -14 4
-20 0 -5 4 -9 9 -9 20 3 23 -3 11 -18 -12 -14 -12 -16 1 -9 9 4 8 2 -2 -7 -10
-8 -15 -17 -11 -20 3 -4 12 1 20 11 8 9 11 11 7 3 -5 -10 -3 -12 7 -7 8 4 6 1
-3 -7 -10 -8 -18 -18 -18 -22 0 -4 8 -1 17 6 9 8 14 9 10 3 -8 -14 16 -37 28
-26 5 4 5 1 1 -5 -5 -9 -2 -11 10 -6 12 4 15 2 12 -8 -3 -8 -10 -14 -16 -14
-5 0 -14 -3 -18 -8 -4 -4 0 -7 10 -7 12 0 15 -6 12 -25 -3 -13 -8 -30 -12 -36
-5 -8 -3 -9 6 -4 9 6 11 4 5 -5 -5 -8 -4 -11 1 -7 6 3 10 -5 10 -19 0 -13 -4
-24 -9 -24 -4 0 -5 -5 -1 -11 4 -8 9 -7 16 2 8 11 9 10 4 -3 -3 -11 3 -23 17
-33 19 -13 22 -13 30 0 4 8 13 15 18 15 6 0 3 -7 -5 -16 -9 -8 -13 -20 -10
-26 5 -7 2 -8 -6 -3 -10 6 -11 4 -4 -6 24 -39 7 -52 -26 -19 -11 11 -20 16
-20 11 0 -6 9 -16 20 -24 11 -8 17 -17 12 -22 -4 -5 -1 -5 7 0 10 6 12 4 7 -6
-6 -10 -4 -10 6 1 7 8 20 16 28 18 10 1 9 -2 -4 -13 -11 -8 -16 -15 -12 -15 5
0 3 -6 -3 -13 -6 -8 -8 -16 -5 -20 8 -8 -18 -3 -33 6 -7 5 -13 5 -13 0 0 -4
-5 -1 -11 7 -9 13 -10 13 -6 0 2 -8 10 -14 16 -13 6 2 11 -2 11 -8 0 -6 8 -8
18 -5 14 5 14 4 -2 -9 -14 -11 -16 -15 -5 -15 12 0 12 -2 -1 -11 -13 -9 -13
-10 1 -6 12 4 15 -1 15 -18 -1 -13 -5 -27 -9 -31 -3 -4 -1 -16 4 -27 9 -16 13
-17 20 -6 7 12 10 12 21 0 11 -11 11 -13 -1 -6 -9 5 -12 4 -7 -3 3 -6 1 -14
-5 -18 -8 -4 -9 -3 -5 4 4 8 2 10 -8 6 -8 -3 -13 -14 -11 -26 4 -19 3 -19 -20
-4 -24 16 -25 16 -21 -6 3 -13 5 -25 5 -28 1 -3 6 2 11 10 8 13 11 13 22 1 7
-8 8 -11 3 -8 -7 3 -11 -6 -10 -23 0 -15 4 -26 9 -23 5 4 6 1 2 -5 -11 -19
-29 -14 -21 6 5 14 4 15 -7 4 -11 -11 -9 -16 7 -29 17 -13 17 -15 2 -9 -12 4
-16 2 -11 -6 5 -7 2 -8 -7 -3 -11 6 -12 5 -1 -6 13 -14 16 -30 5 -28 -19 3
-33 -2 -33 -12 0 -5 4 -8 9 -4 5 3 13 0 17 -6 5 -8 3 -9 -7 -4 -11 7 -12 6 -3
-6 14 -18 14 -50 0 -42 -6 4 -4 -2 4 -12 12 -15 12 -17 1 -10 -10 5 -12 4 -7
-4 4 -6 13 -8 19 -4 7 4 5 -2 -3 -13 -22 -29 -24 -30 -18 -13 4 9 1 16 -8 16
-7 0 -10 -5 -7 -10 9 -15 11 -67 2 -62 -4 3 -6 -4 -4 -15 3 -14 0 -18 -8 -13
-8 4 -7 1 1 -9 11 -14 10 -20 -7 -37 -11 -11 -17 -22 -13 -24 4 -2 2 -2 -5 -1
-16 4 -26 -13 -13 -21 7 -4 7 -12 0 -25 -8 -16 -7 -18 4 -14 10 4 14 -1 13
-14 0 -12 -5 -18 -9 -16 -5 3 -6 11 -2 17 3 7 -1 4 -9 -6 -10 -12 -17 -14 -22
-7 -3 5 -11 8 -16 4 -6 -4 -3 -15 8 -27 13 -15 14 -19 3 -12 -10 6 -9 4 2 -6
9 -9 15 -19 11 -22 -3 -4 -14 4 -23 16 -10 12 -22 18 -27 14 -4 -5 2 -17 15
-27 23 -19 31 -37 10 -23 -7 4 -19 8 -26 9 -11 2 -11 -1 0 -14 11 -15 11 -16
-2 -7 -9 6 -8 2 2 -7 18 -16 18 -17 -4 -24 -13 -4 -26 -7 -30 -6 -5 1 -8 -1
-8 -6 0 -4 14 -14 32 -21 18 -8 27 -16 20 -19 -7 -2 -10 -8 -7 -13 4 -5 -1 -6
-9 -3 -9 3 -14 10 -11 15 3 4 -3 13 -14 18 -14 8 -21 8 -25 -2 -3 -6 -3 -1 0
13 4 14 3 22 -1 18 -11 -11 -15 -59 -4 -53 5 4 6 -1 2 -10 -4 -12 -8 -13 -13
-5 -5 8 -9 7 -14 -5 -3 -9 -10 -13 -16 -10 -5 3 -10 1 -10 -4 0 -6 7 -11 16
-11 9 0 12 -5 8 -12 -4 -7 -3 -8 4 -4 6 4 9 12 6 19 -2 7 4 13 16 14 19 2 19
1 3 -25 -9 -15 -13 -24 -8 -20 4 5 15 -1 22 -12 8 -11 22 -19 31 -18 9 2 22
-8 29 -22 8 -16 13 -19 13 -9 0 9 -7 22 -15 29 -16 13 -20 31 -7 29 19 -3 33
2 27 11 -3 6 -1 10 5 10 6 0 13 -7 16 -15 4 -8 11 -15 17 -15 6 0 4 7 -5 16
-15 16 -15 18 5 36 21 19 20 18 -13 -1 -22 -12 -41 -17 -49 -12 -7 5 -23 6
-35 4 -21 -5 -21 -5 -1 10 12 9 26 12 35 7 19 -10 42 -1 33 13 -4 6 0 8 11 4
14 -6 15 -3 6 13 -8 14 -8 20 0 20 6 0 13 -6 16 -14 3 -8 12 -17 19 -20 9 -3
12 0 8 10 -3 7 -9 14 -15 14 -5 0 -7 4 -4 8 3 5 -1 9 -9 10 -8 1 -22 3 -30 4
-9 1 -14 7 -11 14 3 8 1 16 -4 19 -6 4 -10 12 -10 18 1 7 10 1 21 -13 12 -14
27 -25 33 -25 16 0 56 -42 48 -50 -4 -3 2 -3 13 1 18 7 18 8 -1 16 -22 11 -60
58 -45 58 5 0 13 -4 16 -10 3 -5 10 -10 16 -10 5 0 0 9 -11 20 -12 12 -18 26
-14 32 5 7 10 4 15 -10 10 -27 21 -28 37 -2 15 25 4 27 -14 3 -12 -16 -13 -16
-14 -2 0 25 27 44 43 30 8 -6 17 -8 20 -5 3 4 5 -3 4 -15 -1 -13 -6 -20 -15
-16 -7 2 -11 1 -8 -4 3 -5 -1 -12 -10 -15 -8 -3 -13 -10 -10 -15 4 -5 -2 -12
-11 -15 -15 -4 -15 -5 1 -3 11 1 19 7 18 12 0 6 9 15 22 22 24 13 31 58 9 58
-7 0 -18 6 -25 14 -11 12 -10 13 4 8 19 -7 42 16 35 35 -3 8 -6 6 -6 -5 -1
-10 -6 -15 -11 -12 -6 3 -24 -9 -40 -27 -17 -18 -30 -28 -30 -22 0 5 6 16 13
24 10 12 9 12 -4 2 -14 -11 -16 -9 -16 13 0 19 3 23 12 15 9 -7 21 -7 39 1 45
21 24 32 -33 18 -7 -2 -16 2 -18 9 -3 7 -1 12 4 11 25 -4 34 2 29 24 l-6 22
12 -23 c6 -13 16 -21 23 -19 13 6 40 -13 48 -33 4 -12 6 -12 6 2 1 10 -8 22
-20 28 -18 10 -19 13 -6 28 8 9 12 23 10 30 -3 7 0 11 5 10 6 -2 17 5 24 15
13 18 15 18 29 1 13 -16 12 -17 -4 -11 -11 4 -16 3 -12 -3 3 -6 1 -10 -6 -10
-7 0 -10 -3 -7 -6 4 -3 16 -1 27 6 21 10 21 12 4 34 l-18 24 -15 -22 c-23 -32
-49 -33 -45 -1 1 15 -3 32 -9 38 -9 9 -7 16 6 29 17 17 18 17 18 -5 1 -79 0
-74 16 -52 8 11 12 26 8 35 -10 27 -9 32 5 38 8 2 11 0 8 -5 -8 -12 10 -39 20
-30 4 5 3 11 -2 15 -12 8 -18 65 -7 58 5 -3 13 -2 19 2 8 5 7 13 -4 27 -15 20
-15 20 -9 -1 5 -15 2 -21 -9 -21 -9 0 -14 6 -11 14 10 25 -4 44 -24 33 -13 -7
-21 -7 -25 0 -6 9 8 14 28 11 4 0 7 5 7 12 0 6 5 4 11 -5 11 -20 33 -25 26 -5
-6 16 11 47 25 47 9 0 9 -3 0 -12 -7 -7 -12 -16 -12 -22 0 -5 7 -1 15 10 12
17 12 20 -1 31 -9 6 -23 9 -32 5 -15 -5 -15 -4 -3 11 13 16 16 16 38 1 14 -8
27 -13 30 -10 3 3 -7 11 -22 18 -22 10 -24 14 -12 23 15 11 19 45 4 45 -5 0
-7 -6 -4 -14 3 -8 0 -20 -8 -26 -11 -9 -13 -4 -11 26 1 26 7 39 21 44 17 6 17
7 1 13 -16 6 -15 10 10 36 15 17 31 28 36 25 4 -3 5 2 2 11 -6 14 -9 13 -21
-5 -12 -17 -18 -19 -29 -9 -8 6 -14 16 -14 22 0 8 3 8 11 0 7 -7 18 -3 35 14
14 14 23 28 19 31 -3 3 -12 -4 -21 -16 -8 -12 -20 -22 -26 -22 -7 0 -6 6 2 15
7 8 9 15 5 15 -4 0 -14 -8 -22 -17 -13 -17 -13 -17 -11 2 1 11 -1 26 -5 33
-10 15 5 16 20 1 7 -7 19 -8 30 -4 10 5 21 8 25 7 4 -1 5 5 1 14 -5 15 -7 15
-15 0 -5 -9 -17 -16 -26 -16 -15 0 -15 2 -2 11 12 9 12 10 -4 5 -14 -5 -17 -2
-12 10 3 8 6 18 6 20 0 2 5 4 11 4 5 0 7 -4 4 -10 -3 -5 -1 -10 5 -10 7 0 9 7
6 16 -3 9 -6 18 -6 21 0 3 -6 0 -13 -6 -11 -8 -14 -4 -14 21 l0 31 29 -32 c16
-18 32 -30 36 -27 3 4 -4 13 -17 22 -15 11 -20 22 -16 37 2 12 2 16 -1 10 -3
-7 -10 -13 -15 -13 -6 0 -7 5 -4 10 3 6 2 10 -2 10 -5 0 -14 -9 -21 -21 -7
-12 -16 -18 -19 -15 -3 3 0 13 8 23 12 14 12 15 0 9 -9 -6 -12 -5 -9 4 2 8 18
14 36 15 43 2 50 12 24 31 -26 18 -28 37 -7 54 14 11 14 15 -2 33 -18 19 -17
19 7 13 20 -6 22 -5 8 4 -9 5 -24 7 -33 4 -14 -6 -13 -8 5 -21 17 -12 19 -18
9 -29 -6 -8 -16 -14 -21 -14 -6 0 -6 6 1 14 10 11 8 16 -9 21 -11 4 -17 11
-14 17 4 7 2 8 -4 4 -6 -4 -9 -13 -6 -21 4 -8 10 -12 15 -9 5 3 9 1 9 -4 0 -6
-7 -13 -16 -16 -22 -9 -24 -8 -18 9 4 8 -1 17 -10 21 -15 6 -15 8 1 20 10 7
26 14 36 14 9 0 17 4 17 10 0 5 -6 7 -13 4 -8 -3 -20 3 -28 12 -12 15 -12 16
8 10 15 -5 25 -1 36 14 7 11 17 17 22 12 5 -4 5 -1 1 6 -10 18 -26 15 -26 -5
0 -12 -3 -14 -10 -7 -12 12 11 76 26 74 5 -1 10 4 12 12 3 11 2 11 -6 0 -5 -8
-13 -13 -18 -12 -4 1 -11 -6 -14 -16 -5 -13 -9 -14 -14 -5 -4 6 -3 18 4 26 15
18 -4 29 -27 15 -15 -9 -15 -10 5 -5 21 6 22 5 10 -14 -14 -22 -38 -36 -38
-22 0 5 6 12 13 15 6 3 2 3 -10 0 -20 -4 -21 -3 -10 20 6 13 15 22 19 20 4 -3
12 5 18 17 8 15 9 19 1 15 -6 -4 -11 -3 -11 3 0 6 -10 16 -22 22 l-23 11 23
-21 c27 -27 28 -36 1 -38 -17 -2 -18 1 -9 13 12 14 3 20 -24 15 -5 -1 -6 5 -2
14 4 10 2 14 -5 9 -7 -4 -10 -1 -7 7 3 8 12 13 22 11 9 -2 16 1 16 7 0 10 -19
9 -38 -3 -9 -6 -11 -1 -8 20 3 15 0 34 -6 41 -13 16 3 18 19 2 6 -6 9 -18 6
-25 -3 -9 2 -14 13 -13 11 0 14 3 6 6 -6 2 -10 8 -7 13 3 5 -5 17 -18 27 -36
28 -38 39 -15 69 21 28 21 28 1 11 -20 -18 -21 -17 -42 12 -12 16 -17 32 -13
35 5 3 15 -5 22 -19 11 -20 16 -22 31 -12 21 13 25 28 7 25 -7 -2 -12 2 -13 7
0 6 -6 20 -13 33 -11 18 -16 20 -32 12 -26 -14 -71 6 -49 22 11 8 10 9 -4 4
-25 -8 -45 37 -27 59 15 18 11 19 -12 2z m-14 -71 c-1 -9 2 -16 7 -16 5 0 5
-8 2 -17 -7 -17 -6 -17 11 0 20 19 25 20 46 7 8 -5 11 -12 7 -17 -5 -4 -12 -1
-17 7 -7 11 -10 12 -10 2 0 -7 -4 -10 -10 -7 -5 3 -7 0 -4 -9 8 -21 -22 -14
-42 10 -8 10 -12 13 -8 5 5 -10 3 -12 -7 -7 -8 4 -5 0 5 -8 11 -9 14 -16 7
-16 -7 0 -9 -5 -5 -11 4 -8 9 -7 16 2 8 11 9 10 5 -3 -4 -12 -1 -16 14 -13 21
4 24 -5 9 -23 -6 -6 -7 -10 -4 -7 4 3 13 0 20 -5 8 -8 16 -6 27 5 9 8 19 15
23 15 4 0 4 -3 1 -7 -4 -3 -1 -13 6 -21 10 -13 9 -15 -5 -10 -9 4 -24 0 -35
-8 -13 -10 -14 -13 -3 -11 8 2 11 2 6 -1 -4 -2 -2 -8 5 -13 10 -6 11 -9 2 -9
-7 0 -13 -5 -13 -11 0 -8 5 -8 15 1 10 9 15 9 15 1 0 -6 -4 -11 -9 -11 -6 0
-8 -9 -6 -20 5 -26 1 -25 -31 7 -22 22 -24 27 -11 35 8 4 14 16 12 26 -2 9 -4
20 -4 25 -1 4 -7 6 -13 5 -7 -2 -12 3 -10 10 1 6 -1 12 -5 13 -59 7 -73 6 -84
-7 -6 -8 -8 -14 -3 -14 5 0 -4 -11 -20 -25 -34 -29 -46 -33 -23 -7 23 26 21
39 -2 17 -19 -17 -21 -16 -39 14 -10 17 -22 28 -27 23 -5 -4 -5 -1 0 7 6 11
12 9 26 -10 10 -13 19 -28 19 -33 0 -10 30 13 30 24 0 4 -8 7 -17 6 -11 -1
-18 7 -19 21 -1 15 3 20 14 15 11 -4 13 -2 7 8 -5 8 -4 11 2 7 6 -4 16 6 22
21 12 24 14 25 25 10 11 -15 13 -15 24 2 7 12 8 20 1 24 -5 2 -4 3 3 2 7 -2
12 -9 11 -15 -4 -15 12 -14 26 2 8 10 7 17 -2 26 -10 11 -9 13 3 9 8 -3 14
-13 14 -22z m36 -7 c0 -5 -4 -9 -10 -9 -5 0 -10 7 -10 16 0 8 5 12 10 9 6 -3
10 -10 10 -16z m102 -39 c6 0 8 -3 5 -7 -4 -3 -2 -12 4 -20 7 -8 8 -13 1 -13
-5 0 -16 10 -24 22 l-14 22 -24 -24 c-14 -14 -17 -21 -7 -17 16 6 50 -33 54
-63 2 -18 11 -53 14 -60 6 -14 3 -36 -6 -42 -7 -6 -6 -10 1 -15 6 -5 16 -18
23 -31 7 -12 16 -20 22 -17 5 4 9 1 9 -4 0 -14 -17 -14 -25 -1 -4 6 -10 8 -15
5 -4 -3 -14 3 -21 12 -12 15 -12 16 5 10 16 -6 17 -5 6 8 -10 12 -15 13 -21 3
-4 -6 -5 -16 -3 -20 3 -4 -3 -5 -13 -1 -17 7 -17 6 0 -11 9 -10 14 -22 11 -28
-5 -7 -2 -8 6 -3 9 6 11 4 5 -5 -6 -9 -4 -11 5 -5 9 5 11 4 6 -3 -4 -7 -2 -12
3 -12 6 0 11 5 11 11 0 5 5 7 11 3 8 -5 8 -8 0 -14 -9 -5 -7 -11 5 -21 13 -10
16 -10 10 -1 -4 7 -2 20 5 28 10 12 10 15 -1 12 -7 -2 -15 3 -17 10 -4 11 -1
12 16 3 23 -13 26 -22 10 -38 -17 -17 18 -46 41 -33 22 12 39 -5 21 -23 -7 -7
-5 -14 7 -24 16 -14 16 -14 -1 -9 -26 8 -41 -3 -27 -19 12 -15 4 -39 -10 -30
-4 3 -10 -2 -14 -10 -3 -8 2 -19 12 -24 16 -9 15 -11 -3 -25 -24 -19 -50 -16
-51 4 -1 8 -2 18 -4 23 -1 4 -3 15 -4 25 -1 9 -4 22 -7 27 -8 13 -5 67 5 84
10 15 -4 31 -30 35 -11 2 -19 11 -19 23 0 11 -6 27 -14 36 -7 10 -10 17 -5 17
5 1 -1 9 -13 19 -19 16 -20 20 -7 25 8 3 12 10 9 16 -3 5 -2 10 2 10 12 0 14
38 2 46 -5 3 1 14 13 25 20 16 21 20 8 29 -8 5 -11 10 -5 10 5 0 4 5 -3 12 -9
9 -16 7 -32 -7 -11 -10 -20 -16 -21 -14 -9 45 1 94 15 71 4 -7 17 0 33 16 24
23 28 25 31 10 2 -10 8 -18 14 -18z m-289 -132 c-5 -9 -37 -11 -46 -2 -3 3 -1
17 5 29 l11 24 17 -22 c10 -12 16 -25 13 -29z m-62 24 c-7 -2 -18 1 -23 6 -8
8 -4 9 13 5 13 -4 18 -8 10 -11z m24 -50 c-3 -3 -11 0 -18 7 -9 10 -8 11 6 5
10 -3 15 -9 12 -12z m-45 -7 c0 -2 -6 -8 -13 -14 -10 -8 -14 -7 -14 2 0 8 6
14 14 14 7 0 13 -1 13 -2z m70 -20 c0 -8 -2 -15 -4 -15 -2 0 -6 7 -10 15 -3 8
-1 15 4 15 6 0 10 -7 10 -15z m40 5 c0 -5 -4 -10 -10 -10 -5 0 -10 5 -10 10 0
6 5 10 10 10 6 0 10 -4 10 -10z m-90 -4 c0 -2 -8 -10 -17 -17 -16 -13 -17 -12
-4 4 13 16 21 21 21 13z m-80 -22 c0 -8 -19 -13 -24 -6 -3 5 1 9 9 9 8 0 15
-2 15 -3z m190 -20 c0 -8 -4 -14 -10 -14 -5 0 -7 8 -3 18 5 14 3 15 -8 5 -7
-7 -17 -13 -23 -13 -5 0 -1 6 9 14 22 16 35 12 35 -10z m-90 1 c-7 -8 -18 -15
-24 -15 -6 0 -2 7 8 15 25 19 32 19 16 0z m109 -21 c-9 -11 -9 -14 1 -14 8 0
11 -3 7 -6 -3 -3 -13 -2 -22 4 -16 8 -16 9 0 15 9 4 13 12 9 18 -4 8 -3 9 5 5
9 -6 9 -11 0 -22z m-122 -17 c0 -8 -6 -14 -14 -14 -9 0 -10 4 -2 14 6 7 12 13
14 13 1 0 2 -6 2 -13z m76 -17 c10 -12 9 -12 -4 -2 -9 6 -18 9 -21 6 -3 -3 -9
-1 -12 4 -9 15 22 8 37 -8z m291 7 c4 4 4 0 0 -10 -5 -14 -9 -15 -20 -6 -8 6
-14 16 -14 21 0 7 5 6 13 -1 8 -6 17 -8 21 -4z m-194 -43 c0 -2 -11 2 -25 8
-14 6 -25 15 -25 20 0 5 11 1 25 -8 14 -9 25 -18 25 -20z m-65 6 c3 -6 -1 -7
-9 -4 -18 7 -21 14 -7 14 6 0 13 -4 16 -10z m34 -16 c4 3 13 0 21 -5 11 -7 9
-8 -9 -6 -14 2 -26 9 -27 16 -1 6 0 7 3 1 2 -5 8 -8 12 -6z m-184 -3 c3 -5 2
-12 -3 -15 -5 -3 -9 1 -9 9 0 17 3 19 12 6z m135 -16 c-7 -8 -8 -20 -4 -27 5
-10 4 -10 -6 -1 -10 9 -10 15 -2 26 7 8 8 18 4 22 -4 5 -1 5 6 1 10 -6 10 -11
2 -21z m70 -9 c0 -3 -4 -8 -10 -11 -5 -3 -10 -1 -10 4 0 6 5 11 10 11 6 0 10
-2 10 -4z m-130 -12 c0 -8 -19 -13 -24 -6 -3 5 1 9 9 9 8 0 15 -2 15 -3z m170
-4 c0 -5 -8 -7 -17 -3 -15 5 -16 3 -5 -8 6 -7 12 -17 12 -23 0 -5 -6 -1 -14 9
-8 11 -12 23 -10 27 7 11 34 10 34 -2z m-67 -16 c4 -1 12 -2 17 -3 6 0 10 -6
10 -12 0 -8 -4 -9 -13 0 -8 6 -16 9 -19 6 -3 -3 -11 2 -19 12 -12 15 -12 16 1
8 8 -6 18 -10 23 -11z m-113 -24 c0 -5 -5 -10 -11 -10 -5 0 -7 5 -4 10 3 6 8
10 11 10 2 0 4 -4 4 -10z m94 1 c3 -5 -2 -15 -12 -22 -15 -13 -16 -12 -4 3 10
13 10 17 0 21 -9 4 -9 6 -1 6 6 1 14 -3 17 -8z m66 -21 c0 -5 -4 -10 -10 -10
-5 0 -10 5 -10 10 0 6 5 10 10 10 6 0 10 -4 10 -10z m-83 -35 c0 -8 -4 -12 -9
-9 -5 3 -6 10 -3 15 9 13 12 11 12 -6z m24 -8 c-10 -9 -11 -8 -5 6 3 10 9 15
12 12 3 -3 0 -11 -7 -18z m73 8 c3 -8 1 -15 -4 -15 -6 0 -10 7 -10 15 0 8 2
15 4 15 2 0 6 -7 10 -15z m-179 -13 c-3 -3 -11 0 -18 7 -9 10 -8 11 6 5 10 -3
15 -9 12 -12z m156 -25 c-8 -8 -14 -7 -23 2 -11 10 -9 11 6 5 15 -6 17 -4 11
6 -6 9 -4 11 4 5 9 -5 10 -10 2 -18z m-47 -29 c-3 -4 -9 -8 -15 -8 -5 0 -9 4
-9 8 0 5 7 9 15 9 8 0 12 -4 9 -9z m374 -28 c27 -36 27 -38 0 -36 -13 1 -33
-4 -45 -12 -13 -8 -23 -13 -24 -11 -9 33 -3 62 15 74 27 20 29 20 54 -15z
m-361 5 c0 -8 -4 -12 -9 -9 -5 3 -6 10 -3 15 9 13 12 11 12 -6z m63 -6 l25
-20 -25 12 c-14 7 -28 12 -32 11 -5 -1 -8 3 -8 8 0 15 12 12 40 -11z m60 6 c0
-8 -4 -15 -10 -15 -5 0 -7 7 -4 15 4 8 8 15 10 15 2 0 4 -7 4 -15z m-256 -33
c3 -5 -1 -9 -9 -9 -8 0 -12 4 -9 9 3 4 7 8 9 8 2 0 6 -4 9 -8z m236 -2 c-8 -5
-19 -10 -25 -10 -5 0 -3 5 5 10 8 5 20 10 25 10 6 0 3 -5 -5 -10z m0 -34 c0
-2 -7 -6 -15 -10 -8 -3 -15 -1 -15 4 0 6 7 10 15 10 8 0 15 -2 15 -4z m216
-23 c-1 -12 5 -17 17 -15 24 4 21 -10 -4 -27 -19 -11 -21 -11 -16 1 3 8 -1 15
-9 15 -7 0 -10 -5 -7 -10 3 -5 -1 -14 -8 -19 -10 -7 -9 -8 6 -4 20 6 20 6 1
-9 -11 -8 -14 -15 -8 -15 19 0 27 4 25 13 -2 4 3 6 10 5 6 -2 11 4 9 12 -3 12
-1 13 10 2 11 -11 10 -16 -6 -27 -17 -13 -17 -17 -5 -32 12 -14 12 -16 0 -8
-11 6 -13 4 -7 -11 4 -10 8 -23 9 -29 1 -5 10 -16 20 -23 31 -24 -6 -50 -40
-29 -6 4 -14 3 -18 -3 -10 -16 -15 -51 -6 -46 4 3 8 -1 8 -9 0 -8 -5 -11 -10
-8 -6 4 -7 1 -2 -6 5 -10 13 -7 30 10 12 14 18 27 12 30 -6 4 -5 9 1 13 15 9
26 -13 13 -28 -6 -7 -7 -17 -3 -21 4 -5 2 -5 -4 -2 -12 7 -29 -21 -19 -31 3
-3 5 0 5 7 0 7 5 9 11 5 8 -5 6 -10 -5 -16 -11 -6 -22 -6 -30 1 -11 9 -13 6
-12 -11 1 -16 -4 -22 -14 -20 -12 3 -13 1 -2 -9 10 -11 8 -16 -10 -27 -15 -8
-16 -11 -5 -8 10 3 16 2 12 -3 -7 -13 25 -7 33 5 8 12 53 13 45 1 -3 -5 -12
-6 -20 -2 -14 5 -14 3 -2 -11 12 -15 12 -17 -1 -12 -8 3 -23 1 -32 -3 -10 -6
-19 -5 -23 1 -3 5 -12 10 -18 10 -7 0 -6 -4 3 -10 13 -9 13 -11 0 -20 -9 -6
-11 -10 -3 -10 7 0 17 -10 24 -21 6 -12 7 -19 2 -16 -4 3 -14 -1 -21 -9 -10
-11 -10 -14 0 -14 9 0 9 -3 -2 -11 -10 -7 -11 -9 -2 -7 8 2 13 7 12 12 -1 5 6
14 16 19 13 7 21 5 31 -8 16 -23 12 -27 -27 -31 -17 -2 -39 -9 -48 -14 -14 -9
-12 -10 8 -5 24 5 24 5 3 -6 l-22 -12 22 -19 c12 -11 16 -17 10 -13 -16 8 -17
-7 -1 -23 9 -9 9 -12 0 -12 -7 0 -12 5 -12 11 0 8 -5 8 -15 -1 -8 -7 -12 -16
-9 -21 3 -5 1 -9 -4 -9 -5 0 -9 -12 -8 -27 1 -20 -4 -28 -16 -28 -10 0 -17 3
-15 6 1 3 -4 13 -11 21 -11 13 -10 16 5 14 10 0 18 5 18 12 0 7 5 16 10 20 6
4 10 18 10 32 -1 14 1 30 4 35 3 6 6 18 6 28 0 10 7 22 15 27 8 5 11 10 6 10
-5 0 -3 6 3 14 7 8 8 17 3 20 -5 3 -8 20 -7 38 1 18 -3 39 -9 47 -8 11 -8 13
0 8 7 -4 17 0 24 8 10 12 10 15 -1 15 -8 0 -5 6 7 15 10 8 15 15 10 15 -5 0
-3 7 4 15 10 12 10 18 1 29 -8 9 -8 16 -2 20 5 4 8 15 6 25 -2 11 7 24 27 35
29 18 29 18 9 32 -11 8 -24 14 -28 13 -18 -3 -24 2 -16 14 11 17 12 57 1 63
-5 3 -2 15 8 25 9 10 14 19 10 19 -3 0 1 11 10 25 19 30 22 31 20 8z m-256 -3
c0 -5 -4 -10 -10 -10 -5 0 -10 5 -10 10 0 6 5 10 10 10 6 0 10 -4 10 -10z m-6
-29 c3 -5 -1 -11 -9 -14 -9 -4 -12 -1 -8 9 6 16 10 17 17 5z m22 -53 c4 -7 3
-8 -4 -4 -7 4 -12 2 -12 -4 0 -6 -5 -8 -11 -4 -8 4 -7 9 2 15 18 11 17 11 25
-3z m-176 -14 c0 -8 -19 -13 -24 -6 -3 5 1 9 9 9 8 0 15 -2 15 -3z m50 2 c0
-2 -8 -10 -17 -17 -16 -13 -17 -12 -4 4 13 16 21 21 21 13z m146 -5 c-4 -5 -1
-11 6 -13 7 -3 5 -7 -6 -11 -11 -5 -15 -3 -10 5 5 8 1 9 -12 5 -18 -7 -18 -7
0 8 23 17 30 19 22 6z m-40 -47 c3 -16 2 -26 -1 -23 -3 4 -8 19 -11 35 -3 16
-2 26 1 23 3 -4 8 -19 11 -35z m72 15 c-2 -6 -7 -10 -12 -9 -5 1 -13 -4 -18
-12 -8 -10 -9 -10 -5 2 2 8 10 14 16 13 6 -2 11 2 11 7 0 6 3 10 6 10 3 0 4
-5 2 -11z m-88 -33 c0 -2 -8 -10 -17 -17 -16 -13 -17 -12 -4 4 13 16 21 21 21
13z m276 -71 c1 -8 -1 -15 -5 -15 -14 0 -20 12 -14 26 6 17 16 11 19 -11z
m-251 -3 c-3 -3 -11 0 -18 7 -9 10 -8 11 6 5 10 -3 15 -9 12 -12z m9 -27 c-4
-8 -8 -15 -10 -15 -2 0 -4 7 -4 15 0 8 4 15 10 15 5 0 7 -7 4 -15z m-159 -7
c5 4 5 1 1 -6 -6 -10 -11 -10 -22 -1 -8 6 -14 14 -14 16 0 3 6 0 13 -6 8 -6
18 -7 22 -3z m177 -10 c-7 -7 -12 -8 -12 -2 0 14 12 26 19 19 2 -3 -1 -11 -7
-17z m-56 -17 c0 -16 -4 -17 -18 -10 -10 5 -18 12 -18 15 0 3 4 3 9 -1 5 -3
12 -1 16 5 9 14 11 13 11 -9z m57 -15 c21 4 21 4 2 -5 -25 -11 -35 -5 -34 17
1 15 2 15 6 1 3 -11 12 -15 26 -13z m-76 -12 c-3 -3 -12 -4 -19 -1 -8 3 -5 6
6 6 11 1 17 -2 13 -5z m287 -17 c-3 -7 1 -4 9 6 8 10 18 14 21 9 3 -4 -8 -20
-24 -34 -28 -25 -29 -25 -26 -4 3 11 5 23 6 26 2 3 2 9 1 13 -1 5 3 6 9 2 6
-3 8 -12 4 -18z m-254 -7 c-6 -11 -12 -20 -14 -20 -2 0 -2 9 1 20 3 11 9 20
15 20 5 0 4 -9 -2 -20z m60 -34 c0 -6 -4 -5 -8 2 -5 7 -17 10 -28 7 -18 -6
-18 -6 -1 5 9 6 15 17 11 23 -3 7 2 3 10 -7 9 -11 16 -25 16 -30z m-114 -2 c1
-9 0 -13 -4 -10 -3 4 -7 14 -8 22 -1 9 0 13 4 10 3 -4 7 -14 8 -22z m-81 -14
c3 -5 1 -10 -4 -10 -6 0 -11 5 -11 10 0 6 2 10 4 10 3 0 8 -4 11 -10z m142 4
c-3 -3 -12 -4 -19 -1 -8 3 -5 6 6 6 11 1 17 -2 13 -5z m-199 -29 c-3 -3 -9 2
-12 12 -6 14 -5 15 5 6 7 -7 10 -15 7 -18z m122 5 c0 -5 -5 -10 -11 -10 -5 0
-7 5 -4 10 3 6 8 10 11 10 2 0 4 -4 4 -10z m70 -5 c19 -22 8 -25 -12 -3 -10
10 -14 18 -9 18 5 0 14 -7 21 -15z m-12 -30 c-3 -3 -9 2 -12 12 -6 14 -5 15 5
6 7 -7 10 -15 7 -18z m42 -5 c-8 -5 -19 -10 -25 -10 -5 0 -3 5 5 10 8 5 20 10
25 10 6 0 3 -5 -5 -10z m230 0 c0 -5 -7 -10 -15 -10 -8 0 -15 5 -15 10 0 6 7
10 15 10 8 0 15 -4 15 -10z m-330 -21 c0 -5 -4 -9 -8 -9 -5 0 -9 7 -9 15 0 8
4 12 9 9 4 -3 8 -9 8 -15z m124 6 c-4 -8 -10 -15 -15 -15 -5 0 -9 -5 -9 -11 0
-5 4 -7 10 -4 6 3 7 -1 3 -10 -5 -13 -7 -14 -14 -3 -12 18 -11 24 7 42 19 20
25 20 18 1z m-184 -5 c0 -5 -5 -10 -11 -10 -5 0 -7 5 -4 10 3 6 8 10 11 10 2
0 4 -4 4 -10z m115 0 c-3 -5 -12 -10 -18 -10 -7 0 -6 4 3 10 19 12 23 12 15 0z
m-20 -41 c-4 -5 -12 -9 -18 -8 -9 0 -8 2 1 6 6 2 9 10 6 15 -4 7 -2 8 5 4 6
-4 9 -12 6 -17z m42 5 c-3 -3 -12 -4 -19 -1 -8 3 -5 6 6 6 11 1 17 -2 13 -5z
m-161 -30 c1 -9 0 -13 -4 -10 -3 4 -7 14 -8 22 -1 9 0 13 4 10 3 -4 7 -14 8
-22z m-36 6 c0 -5 -2 -10 -4 -10 -3 0 -8 5 -11 10 -3 6 -1 10 4 10 6 0 11 -4
11 -10z m117 4 c-8 -8 -48 -13 -43 -6 2 4 14 8 26 9 12 1 20 0 17 -3z m80 -9
c-7 -7 -14 -9 -15 -4 -2 5 -8 7 -13 3 -5 -3 -9 -1 -9 4 0 5 11 10 24 10 19 0
22 -3 13 -13z m-61 -17 c4 -7 4 -10 -1 -6 -4 4 -14 0 -22 -10 -10 -13 -13 -14
-11 -2 3 12 16 29 25 30 1 0 5 -6 9 -12z m302 -23 c-3 -3 -9 2 -12 12 -6 14
-5 15 5 6 7 -7 10 -15 7 -18z m-404 7 c3 -5 -1 -9 -9 -9 -8 0 -12 4 -9 9 3 4
7 8 9 8 2 0 6 -4 9 -8z m108 -9 c-6 -2 -9 -10 -6 -15 4 -7 2 -8 -5 -4 -13 9
-5 26 12 25 9 0 8 -2 -1 -6z m-22 -28 c7 -9 8 -15 2 -15 -5 0 -12 7 -16 15 -3
8 -4 15 -2 15 2 0 9 -7 16 -15z m-37 -12 c-5 -12 -3 -14 7 -8 9 6 11 4 5 -4
-5 -9 -11 -9 -17 -3 -6 6 -7 15 -4 21 11 17 16 13 9 -6z m102 7 c3 -5 1 -10
-4 -10 -6 0 -11 5 -11 10 0 6 2 10 4 10 3 0 8 -4 11 -10z m-144 -17 c13 -16
12 -17 -3 -4 -17 13 -22 21 -14 21 2 0 10 -8 17 -17z m356 -8 c21 -15 21 -17
6 -35 -20 -23 -34 -14 -38 24 -4 30 2 32 32 11z m-402 -23 c-3 -3 -11 0 -18 7
-9 10 -8 11 6 5 10 -3 15 -9 12 -12z m120 8 c-27 -12 -43 -12 -25 0 8 5 22 9
30 9 10 0 8 -3 -5 -9z m-75 -4 c0 -2 -8 -10 -17 -17 -16 -13 -17 -12 -4 4 13
16 21 21 21 13z m33 -26 c16 -19 16 -20 -3 -17 -11 2 -23 7 -27 12 -5 4 -2 4
6 0 11 -6 13 -4 8 8 -8 22 -5 21 16 -3z m-76 -3 c0 -8 -6 -14 -14 -14 -9 0
-10 4 -2 14 6 7 12 13 14 13 1 0 2 -6 2 -13z m-82 -35 c-3 -3 -11 0 -18 7 -9
10 -8 11 6 5 10 -3 15 -9 12 -12z m80 -4 c5 4 5 1 1 -6 -6 -10 -11 -10 -22 -1
-8 6 -14 14 -14 16 0 3 6 0 13 -6 8 -6 18 -7 22 -3z m370 -8 c-3 -5 -12 -10
-18 -10 -7 0 -6 4 3 10 19 12 23 12 15 0z m-325 -10 c0 -5 -5 -10 -11 -10 -5
0 -7 5 -4 10 3 6 8 10 11 10 2 0 4 -4 4 -10z m45 -19 c-6 -5 -25 10 -25 20 0
5 6 4 14 -3 8 -7 12 -15 11 -17z m198 15 c3 3 14 1 24 -6 16 -10 16 -11 1 -6
-22 7 -23 2 -2 -18 17 -18 11 -38 -10 -30 -7 3 -13 -2 -13 -10 0 -9 6 -12 16
-8 13 5 14 3 4 -10 -7 -8 -10 -18 -6 -21 3 -4 2 -7 -3 -7 -5 0 -15 9 -22 20
-9 15 -9 20 0 20 6 0 8 3 5 7 -4 3 -2 12 3 18 7 9 3 21 -12 41 -12 16 -15 23
-7 17 9 -7 18 -10 22 -7z m-316 -12 c-3 -3 -12 -4 -19 -1 -8 3 -5 6 6 6 11 1
17 -2 13 -5z m58 -14 c3 -6 -1 -7 -9 -4 -18 7 -21 14 -7 14 6 0 13 -4 16 -10z
m35 0 c0 -5 -4 -10 -10 -10 -5 0 -10 5 -10 10 0 6 5 10 10 10 6 0 10 -4 10
-10z m-98 -33 c-2 -10 -5 -16 -6 -15 -1 2 -7 10 -13 18 -10 13 -8 16 6 16 13
0 17 -6 13 -19z m55 8 c4 -4 3 -5 -4 -2 -6 4 -13 2 -15 -5 -3 -8 -6 -6 -10 4
-7 17 15 19 29 3z m29 -32 c-3 -4 -6 -1 -6 6 0 7 -4 9 -10 6 -6 -4 -7 1 -3 11
6 15 7 15 15 -1 6 -9 7 -19 4 -22z m-29 -10 c2 -6 -1 -14 -6 -18 -7 -3 -8 0
-5 10 5 11 2 14 -10 9 -9 -3 -16 -2 -16 4 0 13 33 8 37 -5z m219 -28 c-20 -15
-20 -15 0 -16 10 -1 22 -1 26 0 9 1 4 -21 -11 -44 -12 -19 -12 -19 -8 3 4 15
-1 26 -16 33 -20 11 -20 12 -2 25 10 8 21 14 24 14 3 0 -3 -7 -13 -15z m-39
-56 c1 -11 -3 -19 -9 -17 -15 5 -19 38 -4 38 6 0 12 -9 13 -21z m13 -50 c0 6
7 8 15 5 23 -9 18 -22 -7 -19 -13 1 -29 3 -35 4 -7 0 -13 6 -13 11 0 7 6 7 20
0 13 -7 20 -7 20 -1z m-5 -29 c3 -5 2 -10 -4 -10 -5 0 -13 5 -16 10 -3 6 -2
10 4 10 5 0 13 -4 16 -10z"/>
<path d="M1640 2082 c0 -7 -12 -24 -26 -39 -14 -14 -22 -28 -19 -31 3 -4 10 0
15 8 6 8 10 10 10 4 0 -5 7 -19 16 -30 8 -10 12 -13 9 -6 -9 18 25 42 53 37
15 -3 20 0 15 8 -4 7 -8 14 -9 17 0 3 -4 13 -9 23 -7 16 -8 16 -20 1 -11 -16
-13 -16 -23 2 -6 10 -12 13 -12 6z m37 -21 c7 7 13 10 14 8 7 -37 7 -41 -3
-31 -8 8 -15 7 -25 -6 -12 -16 -13 -16 -7 2 6 16 5 17 -17 7 -21 -11 -22 -10
-7 2 10 8 16 16 14 19 -1 3 2 2 7 -3 6 -5 16 -4 24 2z"/>
<path d="M1774 1929 c-3 -6 2 -18 12 -27 17 -16 17 -16 5 0 -7 9 -10 22 -6 28
3 5 4 10 1 10 -3 0 -8 -5 -12 -11z"/>
<path d="M1836 1951 c-4 -6 -3 -11 2 -11 13 0 11 -30 -2 -30 -6 0 -3 -5 7 -11
14 -8 22 -8 30 0 7 7 6 12 -6 17 -9 3 -15 9 -13 13 3 4 1 13 -3 20 -6 9 -11
10 -15 2z"/>
<path d="M1831 1884 c4 -23 -2 -35 -13 -28 -9 5 -9 2 1 -9 19 -23 26 -21 40
11 7 15 9 24 5 20 -4 -4 -13 -3 -21 4 -8 6 -13 7 -12 2z m10 -37 c-10 -9 -11
-8 -5 6 3 10 9 15 12 12 3 -3 0 -11 -7 -18z"/>
<path d="M1899 1707 c0 -1 -2 -13 -3 -26 -3 -23 -2 -23 11 -5 8 10 22 17 31
16 9 -2 14 -1 11 2 -6 6 -48 17 -50 13z"/>
<path d="M1964 1686 c-3 -8 -14 -13 -24 -11 -14 3 -17 -1 -13 -12 4 -9 2 -14
-3 -10 -17 10 -39 -10 -27 -25 6 -7 9 -21 8 -30 -5 -29 13 -31 30 -4 14 22 21
41 24 68 1 4 8 14 17 22 8 9 10 16 4 16 -6 0 -13 -6 -16 -14z m-17 -36 c-1
-11 -5 -20 -10 -20 -4 0 -6 -4 -3 -9 3 -4 0 -16 -8 -26 -11 -15 -13 -16 -13
-1 0 9 5 16 11 16 6 0 3 5 -7 11 -9 6 -15 15 -12 20 4 5 11 7 16 4 5 -4 12 1
15 9 8 22 13 20 11 -4z"/>
<path d="M1921 1556 c-10 -12 -9 -14 5 -12 10 2 20 8 22 14 5 17 -13 15 -27
-2z"/>
<path d="M1546 1955 c-4 -10 1 -15 16 -15 17 0 18 2 8 15 -7 8 -14 15 -15 15
-2 0 -5 -7 -9 -15z"/>
<path d="M1983 1518 c-19 -25 -26 -41 -15 -34 5 3 13 0 15 -6 3 -8 6 -6 6 5 1
18 21 25 21 6 0 -5 5 -7 11 -3 8 4 4 11 -10 18 -12 7 -18 15 -15 19 4 4 5 7 2
7 -3 0 -10 -6 -15 -12z"/>
<path d="M1953 1315 c0 -8 4 -12 9 -9 5 3 6 10 3 15 -9 13 -12 11 -12 -6z"/>
<path d="M1954 1284 c-10 -8 -13 -13 -6 -9 7 4 19 2 27 -5 10 -9 13 -8 11 4
-3 24 -11 27 -32 10z"/>
<path d="M1994 1229 c-4 -7 -3 -9 4 -5 5 3 13 0 15 -6 4 -9 6 -10 6 -1 1 17
-16 25 -25 12z"/>
<path d="M1915 960 c3 -5 8 -10 11 -10 2 0 4 5 4 10 0 6 -5 10 -11 10 -5 0 -7
-4 -4 -10z"/>
<path d="M1955 920 c-3 -5 -1 -10 4 -10 6 0 11 5 11 10 0 6 -2 10 -4 10 -3 0
-8 -4 -11 -10z"/>
<path d="M1883 815 c0 -8 4 -12 9 -9 5 3 6 10 3 15 -9 13 -12 11 -12 -6z"/>
<path d="M1906 762 c-3 -5 1 -9 9 -9 8 0 12 4 9 9 -3 4 -7 8 -9 8 -2 0 -6 -4
-9 -8z"/>
<path d="M1777 2183 c-9 -9 -9 -43 1 -43 4 0 8 11 8 25 2 27 1 29 -9 18z"/>
<path d="M1995 2180 c3 -5 8 -10 11 -10 2 0 4 5 4 10 0 6 -5 10 -11 10 -5 0
-7 -4 -4 -10z"/>
<path d="M1802 2160 c0 -14 2 -19 5 -12 2 6 2 18 0 25 -3 6 -5 1 -5 -13z"/>
<path d="M1870 2161 c0 -10 19 -25 25 -20 1 2 -3 10 -11 17 -8 7 -14 8 -14 3z"/>
<path d="M1831 2155 c0 -5 4 -17 9 -25 7 -11 10 -11 10 -2 0 7 5 10 12 6 7 -4
8 -3 4 5 -4 6 -11 9 -16 6 -4 -3 -11 1 -13 7 -3 7 -6 9 -6 3z"/>
<path d="M1810 2120 c0 -5 5 -10 10 -10 6 0 10 5 10 10 0 6 -4 10 -10 10 -5 0
-10 -4 -10 -10z"/>
<path d="M1876 2122 c-2 -4 -1 -14 4 -22 7 -11 9 -9 7 8 -1 24 -3 26 -11 14z"/>
<path d="M1906 2121 c-5 -7 60 -8 67 -1 3 3 -10 6 -29 6 -19 1 -36 -1 -38 -5z"/>
<path d="M1999 2128 c-6 -20 -6 -39 0 -42 4 -3 7 6 7 20 0 20 -4 32 -7 22z"/>
<path d="M2110 2116 c0 -2 8 -10 18 -17 15 -13 16 -12 3 4 -13 16 -21 21 -21
13z"/>
<path d="M1936 2087 c3 -10 9 -15 12 -12 3 3 0 11 -7 18 -10 9 -11 8 -5 -6z"/>
<path d="M1910 2070 c13 -24 17 -25 17 -5 0 8 -6 16 -14 19 -11 4 -11 1 -3
-14z"/>
<path d="M1940 2054 c0 -6 6 -16 13 -23 10 -12 8 -13 -8 -7 -16 6 -18 5 -7 -5
19 -20 33 2 16 25 -8 11 -14 15 -14 10z"/>
<path d="M1907 1992 c-10 -10 -17 -25 -17 -33 0 -9 5 -7 12 6 6 11 16 23 22
27 6 4 8 9 5 13 -3 3 -13 -3 -22 -13z"/>
<path d="M1949 1988 l-24 -19 25 12 c14 8 28 13 32 14 13 0 17 12 4 12 -8 0
-25 -9 -37 -19z"/>
<path d="M1685 1991 c4 -8 2 -17 -6 -22 -12 -7 -12 -9 0 -9 11 0 11 -3 0 -17
-13 -15 -12 -15 7 -3 24 15 25 33 4 53 -10 10 -11 9 -5 -2z"/>
<path d="M1720 1970 c-8 -5 -11 -10 -6 -10 5 0 3 -6 -3 -13 -8 -11 -6 -13 9
-12 21 1 41 15 22 15 -7 0 -12 5 -12 11 0 5 5 7 12 3 7 -4 8 -3 4 4 -9 14 -7
14 -26 2z"/>
<path d="M1994 1972 c4 -7 1 -12 -6 -12 -8 0 -6 -5 5 -11 10 -6 21 -8 24 -5 4
3 1 6 -6 6 -7 0 -10 4 -6 9 3 5 0 13 -6 17 -8 4 -9 3 -5 -4z"/>
<path d="M2046 1958 c3 -5 10 -6 15 -3 13 9 11 12 -6 12 -8 0 -12 -4 -9 -9z"/>
<path d="M1910 1954 c0 -3 9 -17 20 -31 11 -14 20 -21 20 -16 0 6 -7 16 -15
23 -13 11 -13 15 -3 21 10 7 9 9 -4 9 -10 0 -18 -3 -18 -6z"/>
<path d="M1950 1943 c0 -5 5 -15 10 -23 7 -12 9 -10 7 8 -1 19 -17 33 -17 15z"/>
<path d="M2054 1929 c-3 -6 -2 -15 3 -20 5 -5 9 -1 9 11 0 23 -2 24 -12 9z"/>
<path d="M2135 1911 c-3 -5 -2 -12 3 -15 5 -3 9 1 9 9 0 17 -3 19 -12 6z"/>
<path d="M1979 1907 c-10 -16 -3 -50 12 -58 13 -7 19 -6 19 1 0 6 5 8 12 4 6
-4 8 -3 5 4 -4 5 -15 8 -25 5 -12 -3 -18 2 -19 16 -1 13 3 18 13 14 8 -3 14
-3 14 0 0 5 -29 18 -31 14z"/>
<path d="M2028 1893 c6 -2 9 -10 5 -16 -3 -7 -3 -9 2 -5 4 4 13 3 20 -2 8 -7
12 -5 12 5 0 8 -4 12 -8 9 -4 -2 -10 0 -14 6 -3 5 -12 10 -18 9 -9 0 -8 -2 1
-6z"/>
<path d="M1739 1871 c14 -10 26 -26 27 -35 3 -21 -32 -41 -42 -24 -5 7 -3 8 6
3 9 -6 10 -1 5 16 -4 17 -3 20 3 10 6 -8 12 -9 16 -3 11 18 -16 26 -29 9 -13
-18 -30 -24 -20 -7 3 6 2 10 -3 10 -14 0 -23 -27 -16 -45 4 -10 13 -13 24 -10
24 8 35 -12 19 -31 -10 -13 -8 -20 14 -42 20 -20 27 -22 27 -11 0 9 -9 20 -20
25 -18 8 -19 12 -8 27 20 27 47 12 43 -23 -3 -21 0 -28 10 -24 15 6 12 38 -4
58 -7 9 -6 19 5 34 9 13 12 22 7 21 -22 -4 -32 3 -28 19 2 13 -6 22 -28 30
l-32 12 24 -19z m41 -66 c-7 -8 -17 -15 -23 -15 -6 0 -2 7 9 15 25 19 30 19
14 0z"/>
<path d="M1951 1874 c0 -11 3 -14 6 -6 3 7 2 16 -1 19 -3 4 -6 -2 -5 -13z"/>
<path d="M487 1844 c-269 -52 -477 -312 -463 -579 9 -163 61 -282 170 -390
181 -179 437 -222 663 -110 71 35 183 126 183 149 0 6 -21 28 -47 49 -27 20
-67 52 -91 71 l-43 35 -32 -31 c-18 -16 -54 -42 -82 -57 -44 -23 -61 -26 -145
-26 -112 0 -164 20 -233 91 -62 63 -89 123 -95 210 -8 120 36 216 130 289 121
94 312 85 420 -20 l36 -35 59 47 c100 81 123 101 123 111 0 18 -106 107 -167
139 -114 61 -257 82 -386 57z"/>
<path d="M1966 1835 c10 -8 23 -15 28 -15 6 0 1 7 -10 15 -10 8 -23 15 -28 15
-6 0 -1 -7 10 -15z"/>
<path d="M2079 1835 c-1 -3 -2 -8 -3 -12 -1 -5 -5 -14 -10 -21 -4 -7 -5 -16
-2 -19 3 -4 6 -1 6 6 0 7 4 10 8 7 4 -2 8 6 8 20 0 21 -4 32 -7 19z"/>
<path d="M2017 1819 c7 -7 15 -10 18 -7 3 3 -2 9 -12 12 -14 6 -15 5 -6 -5z"/>
<path d="M2035 1791 c-3 -5 -2 -12 3 -15 5 -3 9 1 9 9 0 17 -3 19 -12 6z"/>
<path d="M2109 1783 c-13 -16 -12 -17 4 -4 9 7 17 15 17 17 0 8 -8 3 -21 -13z"/>
<path d="M1991 1787 c2 -1 12 -9 22 -16 15 -12 17 -12 11 3 -3 9 -13 16 -22
16 -8 0 -13 -1 -11 -3z"/>
<path d="M1750 1754 c0 -8 5 -12 10 -9 6 3 10 1 10 -6 0 -7 2 -10 5 -7 8 7 -5
38 -16 38 -5 0 -9 -7 -9 -16z"/>
<path d="M2113 1746 l-18 -21 24 20 c13 11 25 19 28 17 3 -2 7 -2 9 1 2 2 -3
4 -11 4 -8 0 -23 -10 -32 -21z"/>
<path d="M1819 1744 c-1 -5 -1 -12 0 -17 1 -4 -15 -15 -34 -24 -19 -9 -35 -23
-35 -30 0 -18 10 -16 27 5 8 11 12 12 11 3 -2 -7 3 -16 10 -18 11 -4 12 -1 3
16 -8 14 -8 21 -1 21 5 0 10 -7 10 -15 0 -8 5 -15 11 -15 5 0 7 5 3 12 -4 7
-3 8 5 4 6 -4 9 -11 6 -16 -3 -4 2 -11 11 -14 21 -8 21 -8 21 9 0 8 -4 12 -8
10 -11 -7 -19 21 -8 32 6 6 2 16 -11 28 -11 10 -21 14 -21 9z m26 -32 c-3 -3
-12 -7 -21 -8 -11 -2 -12 1 -5 10 6 7 7 17 3 22 -4 4 1 2 11 -5 9 -8 15 -16
12 -19z"/>
<path d="M2039 1713 c-13 -16 -12 -17 4 -4 9 7 17 15 17 17 0 8 -8 3 -21 -13z"/>
<path d="M2116 1707 c3 -10 9 -15 12 -12 3 3 0 11 -7 18 -10 9 -11 8 -5 -6z"/>
<path d="M2055 1701 c-3 -5 0 -13 6 -17 8 -5 9 -3 4 6 -6 10 -4 12 9 7 10 -4
15 -3 11 3 -8 13 -22 13 -30 1z"/>
<path d="M2213 1691 c0 -11 5 -18 9 -15 4 3 5 11 1 19 -7 21 -12 19 -10 -4z"/>
<path d="M2173 1685 c0 -8 4 -12 9 -9 5 3 6 10 3 15 -9 13 -12 11 -12 -6z"/>
<path d="M2080 1676 c0 -2 7 -7 16 -10 8 -3 12 -2 9 4 -6 10 -25 14 -25 6z"/>
<path d="M2056 1661 c-10 -16 2 -46 20 -48 14 -2 15 -1 4 5 -21 10 -26 44 -5
36 8 -3 15 -4 15 -1 0 9 -29 16 -34 8z"/>
<path d="M1800 1650 c-8 -5 -11 -12 -8 -16 4 -4 -2 -18 -12 -32 -15 -18 -17
-28 -9 -38 10 -12 53 -13 66 -1 7 8 33 -11 33 -24 0 -5 -5 -8 -11 -6 -6 1 -13
-5 -14 -14 -2 -10 4 -16 14 -15 9 1 15 -5 12 -14 -8 -33 -5 -45 10 -44 9 1 16
-4 16 -11 0 -13 -25 -13 -46 -1 -7 5 -17 4 -22 -1 -11 -11 -2 -43 12 -43 13 0
11 18 -3 23 -10 4 -10 6 -1 6 18 1 27 -19 14 -32 -8 -8 -2 -19 22 -39 22 -21
26 -27 12 -23 -16 5 -17 5 -5 -3 8 -6 19 -8 25 -4 5 3 4 -2 -4 -11 -11 -14
-11 -17 0 -17 10 0 10 -3 3 -8 -6 -4 -10 -15 -8 -25 1 -10 -2 -14 -8 -11 -16
10 -58 13 -58 5 0 -10 51 -33 58 -26 3 2 11 0 19 -7 7 -6 16 -8 20 -4 3 3 0 6
-8 6 -12 0 -12 2 0 9 12 8 12 12 2 25 -7 9 -9 21 -5 28 14 22 13 36 -3 42 -8
3 -11 10 -8 16 5 9 -7 14 -27 12 -3 -1 -9 5 -12 14 -4 12 -2 12 14 4 29 -15
37 -12 12 6 -21 14 -31 44 -14 44 4 0 17 -7 29 -15 19 -13 22 -13 34 2 8 9 9
14 3 10 -7 -4 -23 8 -38 28 -27 36 -28 59 -1 49 8 -4 12 -10 9 -15 -3 -5 0 -9
6 -9 20 0 5 34 -27 63 -27 24 -31 32 -22 48 8 15 6 21 -6 25 -9 4 -14 13 -11
20 3 8 -3 18 -14 24 -22 12 -21 12 -40 0z m25 -21 c-5 -15 -4 -19 4 -15 6 4
14 0 17 -8 3 -9 11 -13 17 -9 6 4 7 1 2 -7 -6 -10 -11 -9 -23 6 -14 18 -14 18
-9 -3 3 -13 0 -26 -5 -30 -7 -3 -8 -1 -4 6 6 8 0 10 -18 5 -16 -4 -26 -2 -26
5 0 6 6 8 13 5 9 -3 13 4 12 23 -1 33 2 43 16 43 6 0 7 -9 4 -21z m74 -113
c11 -14 6 -15 -27 -7 -4 1 8 21 12 21 2 0 9 -6 15 -14z m16 -265 c3 -5 2 -12
-3 -15 -5 -3 -9 1 -9 9 0 17 3 19 12 6z"/>
<path d="M2175 1649 c-4 -6 -5 -12 -2 -15 2 -3 7 2 10 11 7 17 1 20 -8 4z"/>
<path d="M2031 1634 c0 -11 3 -14 6 -6 3 7 2 16 -1 19 -3 4 -6 -2 -5 -13z"/>
<path d="M2096 1642 c-3 -5 1 -9 9 -9 8 0 12 4 9 9 -3 4 -7 8 -9 8 -2 0 -6 -4
-9 -8z"/>
<path d="M2235 1641 c-3 -5 -2 -12 3 -15 5 -3 9 1 9 9 0 17 -3 19 -12 6z"/>
<path d="M2120 1600 c-9 -6 -10 -10 -3 -10 6 0 15 5 18 10 8 12 4 12 -15 0z"/>
<path d="M2075 1579 c-11 -16 -1 -19 13 -3 7 8 8 14 3 14 -5 0 -13 -5 -16 -11z"/>
<path d="M2146 1578 c3 -5 10 -6 15 -3 13 9 11 12 -6 12 -8 0 -12 -4 -9 -9z"/>
<path d="M2090 1566 c0 -2 7 -7 16 -10 8 -3 12 -2 9 4 -6 10 -25 14 -25 6z"/>
<path d="M2131 1554 c0 -11 3 -14 6 -6 3 7 2 16 -1 19 -3 4 -6 -2 -5 -13z"/>
<path d="M2051 1536 c-9 -11 -9 -16 0 -22 7 -4 9 -3 5 4 -3 5 0 12 6 15 7 2
10 7 7 11 -3 4 -12 0 -18 -8z"/>
<path d="M2096 1525 c-3 -8 -1 -15 4 -15 6 0 10 7 10 15 0 8 -2 15 -4 15 -2 0
-6 -7 -10 -15z"/>
<path d="M2175 1529 c-4 -6 -5 -12 -2 -15 2 -3 7 2 10 11 7 17 1 20 -8 4z"/>
<path d="M2255 1520 c3 -5 8 -10 11 -10 2 0 4 5 4 10 0 6 -5 10 -11 10 -5 0
-7 -4 -4 -10z"/>
<path d="M2070 1511 c0 -10 19 -25 25 -20 1 2 -3 10 -11 17 -8 7 -14 8 -14 3z"/>
<path d="M2173 1487 c0 -7 9 -14 20 -14 11 -1 18 -1 16 0 -2 2 -11 8 -20 15
-12 9 -16 9 -16 -1z"/>
<path d="M2114 1472 c-25 -21 -26 -54 -1 -58 9 -1 15 2 11 7 -3 5 -9 7 -14 4
-5 -3 -8 4 -7 15 1 13 6 19 15 15 8 -3 10 0 6 7 -5 7 -2 9 9 5 11 -4 14 -2 10
9 -6 17 -4 17 -29 -4z"/>
<path d="M2227 1479 c7 -7 15 -10 18 -7 3 3 -2 9 -12 12 -14 6 -15 5 -6 -5z"/>
<path d="M1837 1463 c-3 -5 4 -15 16 -23 21 -12 21 -12 7 6 -8 10 -15 20 -16
22 -1 2 -4 -1 -7 -5z"/>
<path d="M2174 1446 c1 -8 5 -18 8 -22 4 -3 5 1 4 10 -1 8 -5 18 -8 22 -4 3
-5 -1 -4 -10z"/>
<path d="M2147 1431 c-4 -17 -3 -21 5 -13 5 5 8 16 6 23 -3 8 -7 3 -11 -10z"/>
<path d="M2236 1438 c3 -5 10 -6 15 -3 13 9 11 12 -6 12 -8 0 -12 -4 -9 -9z"/>
<path d="M2070 1421 c0 -6 4 -13 10 -16 6 -3 7 1 4 9 -7 18 -14 21 -14 7z"/>
<path d="M2189 1397 c6 -8 7 -18 3 -22 -4 -5 -1 -5 6 -1 10 6 10 11 1 22 -6 8
-14 14 -16 14 -3 0 0 -6 6 -13z"/>
<path d="M2356 1402 c-3 -5 1 -9 9 -9 8 0 12 4 9 9 -3 4 -7 8 -9 8 -2 0 -6 -4
-9 -8z"/>
<path d="M2104 1366 c-19 -15 -15 -28 11 -32 8 -1 13 2 9 7 -3 5 -10 7 -15 4
-16 -11 -9 7 9 21 23 18 11 18 -14 0z"/>
<path d="M1790 1355 c-8 -9 -8 -15 -2 -15 12 0 26 19 19 26 -2 2 -10 -2 -17
-11z"/>
<path d="M2155 1340 c-16 -7 -17 -9 -3 -9 9 -1 20 4 23 9 7 11 7 11 -20 0z"/>
<path d="M2194 1328 l-19 -23 23 19 c21 18 27 26 19 26 -2 0 -12 -10 -23 -22z"/>
<path d="M1830 1329 c0 -6 46 -29 58 -29 4 0 -1 5 -11 11 -9 6 -15 14 -12 19
3 5 -4 8 -15 7 -11 -1 -20 -4 -20 -8z"/>
<path d="M2108 1313 c7 -3 16 -2 19 1 4 3 -2 6 -13 5 -11 0 -14 -3 -6 -6z"/>
<path d="M2135 1299 c-5 -8 -4 -10 3 -5 7 4 12 3 12 -3 0 -5 -6 -12 -12 -14
-10 -4 -10 -6 -1 -6 17 -1 27 19 15 31 -6 6 -12 6 -17 -3z"/>
<path d="M1867 1284 c-8 -8 1 -24 12 -24 4 0 8 7 8 15 0 16 -9 20 -20 9z"/>
<path d="M2095 1279 c-9 -14 0 -22 28 -26 17 -2 19 -1 7 6 -8 5 -18 7 -22 5
-4 -3 -8 -1 -8 5 0 5 6 12 13 14 9 4 9 6 0 6 -6 1 -15 -4 -18 -10z"/>
<path d="M2160 1260 c-9 -6 -10 -10 -3 -10 6 0 15 5 18 10 8 12 4 12 -15 0z"/>
<path d="M2179 1233 c-13 -17 -13 -17 6 -3 11 8 22 16 24 17 2 2 0 3 -6 3 -6
0 -17 -8 -24 -17z"/>
<path d="M2108 1233 c7 -3 16 -2 19 1 4 3 -2 6 -13 5 -11 0 -14 -3 -6 -6z"/>
<path d="M2058 1210 c-16 -18 -16 -19 2 -17 10 1 16 5 14 9 -3 4 0 8 5 8 6 0
11 5 11 10 0 15 -13 11 -32 -10z"/>
<path d="M1866 1194 c-8 -22 -4 -25 11 -9 7 8 9 16 4 19 -5 3 -12 -1 -15 -10z"/>
<path d="M2094 1199 c-3 -6 -2 -15 4 -21 6 -6 12 -6 17 3 5 8 4 10 -3 5 -7 -4
-12 -3 -12 3 0 5 6 12 13 14 9 4 9 6 0 6 -6 1 -15 -4 -19 -10z"/>
<path d="M2147 1186 c-4 -10 -1 -13 8 -9 8 3 12 9 9 14 -7 12 -11 11 -17 -5z"/>
<path d="M2180 1185 c0 -2 6 -8 13 -14 10 -8 14 -7 14 2 0 8 -6 14 -14 14 -7
0 -13 -1 -13 -2z"/>
<path d="M1889 1163 c6 -13 8 -24 4 -25 -4 0 -12 -2 -18 -3 -5 -2 -19 -3 -30
-4 -14 -1 -21 -9 -22 -22 l-2 -21 22 20 c19 17 24 18 35 6 13 -15 12 -15 -27
-18 -8 -1 -16 -6 -18 -13 -2 -6 4 -10 14 -8 10 1 24 -3 32 -9 12 -9 13 -8 8 6
-3 10 -2 20 4 23 5 4 7 10 4 15 -3 5 2 22 12 37 9 15 13 25 8 21 -4 -4 -15 -2
-23 5 -13 10 -14 9 -3 -10z"/>
<path d="M2060 1172 c0 -6 -8 -13 -17 -15 -16 -4 -16 -5 -1 -6 18 -1 34 16 24
26 -3 4 -6 1 -6 -5z"/>
<path d="M2110 1160 c-13 -8 -12 -10 3 -10 9 0 17 5 17 10 0 12 -1 12 -20 0z"/>
<path d="M2160 1166 c0 -2 8 -10 18 -17 15 -13 16 -12 3 4 -13 16 -21 21 -21
13z"/>
<path d="M2216 1153 c-6 -14 -5 -15 5 -6 7 7 10 15 7 18 -3 3 -9 -2 -12 -12z"/>
<path d="M2063 1135 c-3 -9 -3 -19 1 -22 3 -4 6 1 6 11 0 9 5 14 10 11 6 -3
10 -1 10 4 0 17 -20 13 -27 -4z"/>
<path d="M2160 1125 c8 -11 15 -21 16 -23 1 -2 5 5 8 15 4 9 4 14 0 10 -4 -4
-14 -1 -23 6 -14 11 -15 10 -1 -8z"/>
<path d="M2099 1123 c-1 -5 -1 -11 0 -15 0 -5 -8 -8 -18 -8 -11 0 -22 -4 -25
-9 -4 -5 5 -6 19 -3 13 4 24 11 24 16 0 5 5 13 13 17 10 7 10 9 1 9 -7 0 -14
-3 -14 -7z"/>
<path d="M2253 1089 c-2 -23 3 -25 10 -4 4 8 3 16 -1 19 -4 3 -9 -4 -9 -15z"/>
<path d="M1797 1087 c-4 -10 1 -18 14 -22 15 -5 17 -10 9 -25 -7 -12 -6 -20 1
-22 5 -2 11 -18 11 -36 1 -22 4 -29 9 -20 6 8 9 9 9 2 0 -7 6 -14 14 -17 9 -4
13 0 11 11 -2 9 -4 20 -4 25 -1 4 -7 6 -13 5 -7 -2 -13 4 -13 12 0 8 -4 18
-10 22 -7 5 -6 8 1 8 5 0 19 -7 30 -15 16 -13 16 -14 2 -9 -10 3 -18 2 -18 -3
0 -5 9 -9 20 -10 24 -2 26 10 5 27 -10 8 -13 21 -9 34 6 21 6 21 -10 1 -14
-17 -15 -17 -10 -2 4 10 2 17 -4 15 -6 -2 -17 6 -25 16 -12 16 -15 17 -20 3z"/>
<path d="M2095 1060 c-3 -6 1 -7 9 -4 18 7 21 14 7 14 -6 0 -13 -4 -16 -10z"/>
<path d="M2113 1035 c0 -8 4 -12 9 -9 5 3 6 10 3 15 -9 13 -12 11 -12 -6z"/>
<path d="M2068 1033 c6 -2 18 -2 25 0 6 3 1 5 -13 5 -14 0 -19 -2 -12 -5z"/>
<path d="M2046 1004 c-4 -9 -4 -19 -1 -22 3 -3 5 0 5 7 0 7 4 9 10 6 6 -3 7 1
4 9 -8 20 -10 20 -18 0z"/>
<path d="M2138 1008 c5 -5 16 -8 23 -6 8 3 3 7 -10 11 -17 4 -21 3 -13 -5z"/>
<path d="M2072 984 c-7 -8 -8 -14 -3 -14 10 0 25 19 20 25 -2 1 -10 -3 -17
-11z"/>
<path d="M2020 983 c0 -15 19 -37 26 -31 3 4 -1 14 -10 23 -9 9 -16 13 -16 8z"/>
<path d="M2146 982 c-2 -4 4 -8 14 -8 10 0 16 4 14 8 -3 4 -9 8 -14 8 -5 0
-11 -4 -14 -8z"/>
<path d="M2119 978 c-5 -18 -6 -38 -1 -34 7 8 12 36 6 36 -2 0 -4 -1 -5 -2z"/>
<path d="M2047 932 c-15 -16 -15 -19 2 -29 11 -7 23 -8 32 -2 11 8 10 9 -5 7
-10 -2 -21 3 -24 11 -3 9 0 11 8 6 8 -5 11 -4 6 3 -3 6 3 12 16 15 21 4 21 4
2 6 -11 0 -28 -7 -37 -17z"/>
<path d="M2210 940 c0 -5 5 -10 11 -10 5 0 7 5 4 10 -3 6 -8 10 -11 10 -2 0
-4 -4 -4 -10z"/>
<path d="M1794 929 c-9 -15 17 -30 41 -23 16 4 17 3 5 -5 -14 -10 -7 -15 13
-12 5 1 6 -3 2 -9 -4 -6 -15 -4 -30 6 -24 16 -51 11 -39 -7 3 -5 10 -7 15 -4
5 4 9 1 9 -5 0 -6 4 -9 8 -6 4 2 14 1 21 -3 10 -6 9 -10 -4 -14 -11 -5 -14 -3
-9 6 6 8 3 8 -9 -1 -9 -8 -20 -11 -26 -8 -10 6 -25 -23 -16 -32 3 -3 5 1 5 8
0 7 3 10 6 7 4 -4 1 -13 -6 -22 -7 -8 -8 -15 -2 -15 12 0 34 25 27 31 -2 3 4
5 14 6 10 1 18 -5 18 -12 0 -8 -4 -12 -9 -9 -5 3 -16 0 -24 -7 -12 -10 -12
-14 -2 -22 9 -6 8 -7 -5 -3 -12 4 -16 2 -11 -5 4 -6 0 -16 -7 -21 -11 -8 -10
-9 3 -5 12 4 16 1 13 -14 -2 -10 0 -19 5 -19 13 0 19 27 9 37 -6 6 2 20 21 37
23 20 29 31 21 40 -6 7 -7 16 -3 20 4 4 8 12 8 17 1 5 2 10 4 12 1 1 3 10 5
20 3 17 -1 19 -40 21 -11 1 -19 7 -17 14 3 15 -5 16 -14 1z"/>
<path d="M2100 920 c8 -5 20 -10 25 -10 6 0 3 5 -5 10 -8 5 -19 10 -25 10 -5
0 -3 -5 5 -10z"/>
<path d="M2010 900 c0 -5 5 -10 11 -10 5 0 7 -4 4 -10 -3 -5 -2 -10 4 -10 19
0 19 16 0 28 -11 7 -19 8 -19 2z"/>
<path d="M2146 902 c-3 -5 1 -9 9 -9 8 0 12 4 9 9 -3 4 -7 8 -9 8 -2 0 -6 -4
-9 -8z"/>
<path d="M2080 886 c0 -2 7 -7 16 -10 8 -3 12 -2 9 4 -6 10 -25 14 -25 6z"/>
<path d="M2055 871 c-9 -15 15 -25 28 -12 9 9 7 10 -7 5 -13 -5 -17 -4 -12 4
4 7 5 12 2 12 -3 0 -7 -4 -11 -9z"/>
<path d="M2119 853 c-13 -16 -12 -17 4 -4 9 7 17 15 17 17 0 8 -8 3 -21 -13z"/>
<path d="M2020 845 c-13 -15 -4 -39 11 -30 5 4 9 0 9 -8 0 -8 7 -17 15 -21 13
-5 13 -2 -1 19 -9 14 -20 22 -25 19 -5 -3 -9 -1 -9 4 0 17 13 22 27 10 7 -6
15 -9 18 -7 2 3 -4 10 -15 16 -14 10 -21 9 -30 -2z"/>
<path d="M2155 840 c3 -5 8 -10 11 -10 2 0 4 5 4 10 0 6 -5 10 -11 10 -5 0 -7
-4 -4 -10z"/>
<path d="M1732 810 c24 -33 35 -38 35 -15 0 8 -9 17 -19 21 -10 3 -16 10 -13
15 4 5 -1 9 -10 9 -13 0 -12 -5 7 -30z"/>
<path d="M2110 786 c0 -2 7 -7 16 -10 8 -3 12 -2 9 4 -6 10 -25 14 -25 6z"/>
<path d="M2150 785 c0 -7 30 -13 34 -7 3 4 -4 9 -15 9 -10 1 -19 0 -19 -2z"/>
<path d="M2026 765 c-11 -8 -15 -15 -9 -15 6 0 16 7 23 15 16 19 11 19 -14 0z"/>
<path d="M2090 776 c0 -2 8 -10 18 -17 15 -13 16 -12 3 4 -13 16 -21 21 -21
13z"/>
<path d="M1727 717 c-31 -62 -32 -68 -12 -61 8 4 12 10 9 15 -3 5 2 6 10 3 20
-7 11 -24 -12 -24 -15 0 -15 -2 -2 -10 13 -9 13 -10 0 -10 -13 0 -13 -1 0 -11
13 -9 13 -10 0 -6 -8 2 -15 9 -15 14 0 19 -12 24 -19 8 -3 -9 0 -18 8 -21 8
-3 13 -14 11 -24 -3 -14 1 -17 13 -13 9 3 14 3 11 -1 -11 -12 -48 -15 -55 -4
-4 6 -2 8 4 4 6 -3 13 -2 17 4 9 15 -18 12 -41 -5 -12 -8 -24 -12 -26 -9 -3 2
-16 0 -29 -5 l-24 -9 27 -12 c31 -15 36 -54 5 -44 -18 6 -18 5 -1 -15 13 -15
21 -18 31 -9 7 6 13 7 13 2 0 -4 6 0 13 11 8 10 13 29 11 41 -2 23 3 27 39 27
9 0 17 4 17 9 0 5 6 6 13 3 6 -4 2 2 -10 13 -21 18 -21 21 -5 28 9 4 21 6 26
5 5 -1 3 5 -4 15 -12 14 -12 18 3 29 16 11 16 13 2 19 -9 3 -13 11 -9 18 5 8
1 9 -12 5 -14 -6 -13 -2 6 14 14 11 19 17 11 13 -10 -5 -12 -3 -7 5 5 7 11 10
14 6 11 -11 11 -40 -1 -47 -9 -6 -9 -8 0 -8 6 0 14 4 18 10 3 5 13 7 23 4 15
-5 15 -4 -1 6 -9 6 -15 15 -12 20 3 4 -2 11 -11 14 -13 5 -14 9 -4 21 10 12
10 15 -2 15 -7 0 -26 -24 -41 -53z m-61 -172 c1 -8 -2 -15 -8 -15 -7 0 -6 -5
1 -14 15 -17 1 -28 -19 -15 -13 7 -13 9 0 9 11 1 8 6 -9 20 -13 11 -19 20 -14
20 5 0 15 -6 22 -12 11 -11 13 -10 8 4 -6 16 2 32 12 23 3 -3 6 -12 7 -20z"/>
<path d="M2070 760 c0 -5 5 -10 11 -10 5 0 7 5 4 10 -3 6 -8 10 -11 10 -2 0
-4 -4 -4 -10z"/>
<path d="M2175 751 c-3 -5 -2 -12 3 -15 5 -3 9 1 9 9 0 17 -3 19 -12 6z"/>
<path d="M1984 735 c11 -8 22 -12 25 -9 6 6 -19 24 -34 24 -5 -1 -1 -7 9 -15z"/>
<path d="M2035 739 c-8 -12 0 -22 19 -25 7 -1 13 4 13 12 0 11 -3 11 -16 1
-12 -10 -14 -9 -8 6 7 19 2 23 -8 6z"/>
<path d="M1960 720 c8 -5 20 -10 25 -10 6 0 3 5 -5 10 -8 5 -19 10 -25 10 -5
0 -3 -5 5 -10z"/>
<path d="M1995 699 c-4 -6 -4 -13 -1 -17 11 -10 36 -11 36 0 0 6 -7 7 -16 4
-12 -4 -15 -2 -10 9 6 17 0 20 -9 4z"/>
<path d="M2052 691 c-11 -6 -10 -10 0 -19 11 -8 14 -7 14 9 0 10 0 19 -1 19 0
0 -6 -4 -13 -9z"/>
<path d="M1636 675 c4 -8 10 -12 15 -9 8 5 13 -9 10 -28 -2 -15 17 -8 23 8 8
21 8 26 -3 20 -5 -3 -14 1 -21 9 -16 19 -31 19 -24 0z"/>
<path d="M2150 680 c0 -5 5 -10 11 -10 5 0 7 5 4 10 -3 6 -8 10 -11 10 -2 0
-4 -4 -4 -10z"/>
<path d="M1977 663 c-9 -9 -9 -41 1 -46 4 -3 7 8 7 24 0 16 0 29 -1 29 0 0 -4
-3 -7 -7z"/>
<path d="M1665 609 c-9 -14 -2 -20 14 -10 8 6 9 11 3 15 -6 3 -14 1 -17 -5z"/>
<path d="M2030 602 c0 -5 7 -9 15 -9 8 0 12 4 9 9 -3 4 -9 8 -15 8 -5 0 -9 -4
-9 -8z"/>
<path d="M2076 598 c3 -5 10 -6 15 -3 13 9 11 12 -6 12 -8 0 -12 -4 -9 -9z"/>
<path d="M1957 573 c-10 -10 -8 -23 4 -23 5 0 8 4 5 9 -4 5 0 12 6 14 7 3 8 6
2 6 -6 1 -14 -2 -17 -6z"/>
<path d="M2126 558 c3 -5 10 -6 15 -3 13 9 11 12 -6 12 -8 0 -12 -4 -9 -9z"/>
<path d="M1987 539 c7 -7 15 -10 18 -7 3 3 -2 9 -12 12 -14 6 -15 5 -6 -5z"/>
<path d="M1930 526 c0 -2 7 -7 16 -10 8 -3 12 -2 9 4 -6 10 -25 14 -25 6z"/>
<path d="M2046 498 c3 -5 10 -6 15 -3 13 9 11 12 -6 12 -8 0 -12 -4 -9 -9z"/>
<path d="M1971 484 c0 -11 3 -14 6 -6 3 7 2 16 -1 19 -3 4 -6 -2 -5 -13z"/>
<path d="M1890 479 c0 -5 5 -7 10 -4 6 3 10 8 10 11 0 2 -4 4 -10 4 -5 0 -10
-5 -10 -11z"/>
<path d="M1917 473 c-13 -12 -7 -23 11 -22 10 0 12 3 4 6 -6 2 -10 9 -6 14 6
10 0 12 -9 2z"/>
<path d="M2053 465 c0 -8 4 -12 9 -9 5 3 6 10 3 15 -9 13 -12 11 -12 -6z"/>
<path d="M1830 440 c0 -5 7 -7 15 -4 8 4 15 8 15 10 0 2 -7 4 -15 4 -8 0 -15
-4 -15 -10z"/>
<path d="M1857 419 c7 -7 15 -10 18 -7 3 3 -2 9 -12 12 -14 6 -15 5 -6 -5z"/>
<path d="M1940 425 c0 -2 6 -8 13 -14 10 -8 14 -7 14 2 0 8 -6 14 -14 14 -7 0
-13 -1 -13 -2z"/>
<path d="M1780 400 c0 -5 5 -10 10 -10 6 0 10 5 10 10 0 6 -4 10 -10 10 -5 0
-10 -4 -10 -10z"/>
<path d="M1834 396 c-3 -9 -11 -13 -17 -9 -6 4 -7 1 -2 -6 6 -10 11 -9 23 3 9
8 13 19 9 22 -4 4 -9 -1 -13 -10z"/>
<path d="M1868 367 c2 -10 5 -16 6 -15 1 2 7 10 13 18 10 13 8 16 -6 16 -13 0
-17 -6 -13 -19z"/>
<path d="M1793 352 c-1 -22 0 -24 9 -8 6 10 6 22 2 26 -5 5 -10 -3 -11 -18z"/>
<path d="M1899 353 c-13 -16 -12 -17 4 -4 16 13 21 21 13 21 -2 0 -10 -8 -17
-17z"/>
<path d="M1979 368 c-5 -18 -6 -38 -1 -34 7 8 12 36 6 36 -2 0 -4 -1 -5 -2z"/>
<path d="M2036 358 c3 -5 10 -6 15 -3 13 9 11 12 -6 12 -8 0 -12 -4 -9 -9z"/>
<path d="M1820 346 c0 -2 9 -6 20 -9 11 -3 18 -1 14 4 -5 9 -34 13 -34 5z"/>
<path d="M1870 286 c0 -2 7 -7 16 -10 8 -3 12 -2 9 4 -6 10 -25 14 -25 6z"/>
<path d="M1915 260 c3 -5 8 -10 11 -10 2 0 4 5 4 10 0 6 -5 10 -11 10 -5 0 -7
-4 -4 -10z"/>
</g>
</svg>
